HIERARCHY
ROOT Hips
{
	OFFSET -0.001795 -0.223333 0.028219
	CHANNELS 6 Xposition Yposition Zposition Zrotation Yrotation Xrotation 
	JOINT LeftUpLeg
	{
		OFFSET 0.069520 -0.091406 -0.006815
		CHANNELS 3 Zrotation Yrotation Xrotation
		JOINT LeftLeg
		{
			OFFSET 0.034277 -0.375199 -0.004496
			CHANNELS 3 Zrotation Yrotation Xrotation
			JOINT LeftFoot
			{
				OFFSET -0.013596 -0.397961 -0.043693
				CHANNELS 3 Zrotation Yrotation Xrotation
				JOINT LeftToe
				{
					OFFSET 0.026358 -0.055791 0.119288
					CHANNELS 3 Zrotation Yrotation Xrotation
					End Site
					{
						OFFSET 0.000000 0.000000 0.000000
					}
				}
			}
		}
	}
	JOINT RightUpLeg
	{
		OFFSET -0.067670 -0.090522 -0.004320
		CHANNELS 3 Zrotation Yrotation Xrotation
		JOINT RightLeg
		{
			OFFSET -0.038290 -0.382569 -0.008850
			CHANNELS 3 Zrotation Yrotation Xrotation
			JOINT RightFoot
			{
				OFFSET 0.015774 -0.398415 -0.042312
				CHANNELS 3 Zrotation Yrotation Xrotation
				JOINT RightToe
				{
					OFFSET -0.025372 -0.048144 0.123348
					CHANNELS 3 Zrotation Yrotation Xrotation
					End Site
					{
						OFFSET 0.000000 0.000000 0.000000
					}
				}
			}
		}
	}
	JOINT Spine
	{
		OFFSET -0.002533 0.108963 -0.026696
		CHANNELS 3 Zrotation Yrotation Xrotation
		JOINT Spine1
		{
			OFFSET 0.005487 0.135180 0.001092
			CHANNELS 3 Zrotation Yrotation Xrotation
			JOINT Spine2
			{
				OFFSET 0.001457 0.052922 0.025425
				CHANNELS 3 Zrotation Yrotation Xrotation
				JOINT Neck
				{
					OFFSET -0.002778 0.213870 -0.042857
					CHANNELS 3 Zrotation Yrotation Xrotation
					JOINT Head
					{
						OFFSET 0.005152 0.064970 0.051349
						CHANNELS 3 Zrotation Yrotation Xrotation
						End Site
						{
							OFFSET 0.000000 0.000000 0.000000
						}
					}
				}
				JOINT LeftShoulder
				{
					OFFSET 0.078845 0.121749 -0.034090
					CHANNELS 3 Zrotation Yrotation Xrotation
					JOINT LeftArm
					{
						OFFSET 0.090977 0.030469 -0.008868
						CHANNELS 3 Zrotation Yrotation Xrotation
						JOINT LeftForeArm
						{
							OFFSET 0.259612 -0.012772 -0.027456
							CHANNELS 3 Zrotation Yrotation Xrotation
							JOINT LeftHand
							{
								OFFSET 0.249234 0.008986 -0.001171
								CHANNELS 3 Zrotation Yrotation Xrotation
								End Site
								{
									OFFSET 0.000000 0.000000 0.000000
								}
							}
						}
					}
				}
				JOINT RightShoulder
				{
					OFFSET -0.081759 0.118833 -0.038615
					CHANNELS 3 Zrotation Yrotation Xrotation
					JOINT RightArm
					{
						OFFSET -0.096012 0.032551 -0.009143
						CHANNELS 3 Zrotation Yrotation Xrotation
						JOINT RightForeArm
						{
							OFFSET -0.253742 -0.013329 -0.021401
							CHANNELS 3 Zrotation Yrotation Xrotation
							JOINT RightHand
							{
								OFFSET -0.255298 0.007772 -0.005559
								CHANNELS 3 Zrotation Yrotation Xrotation
								End Site
								{
									OFFSET 0.000000 0.000000 0.000000
								}
							}
						}
					}
				}
			}
		}
	}
}
MOTION
Frames: 10
Frame Time: 0.050000
0.054914 0.523811 0.075043 7.596899 -19.750934 68.746833 19.493750 1.043024 -30.957483 -19.660855 24.316233 61.412113 -8.181213 -7.088765 18.464915 0.000000 0.000000 0.000000 -9.482753 3.131430 -22.744063 -6.858740 4.455733 32.341496 -7.082584 -12.171094 -19.686832 0.000000 0.000000 0.000000 -0.507914 0.171157 7.750615 -4.320784 1.410007 -14.001538 -13.655603 8.162950 15.354895 10.741884 -0.683284 -36.065400 0.000000 0.000000 0.000000 2.614257 -28.577371 11.816680 -4.531857 -48.963603 -3.232137 81.028652 -42.253837 -25.710352 0.000000 0.000000 0.000000 -31.964778 12.547994 4.423060 25.482331 62.081049 10.647036 -60.202979 32.485905 -14.798289 0.000000 0.000000 0.000000 
0.058847 0.516404 0.075619 6.693729 -17.920891 68.312909 15.047841 0.405885 -32.542637 -18.262418 20.095746 58.401734 -8.043851 -6.242479 20.313107 0.000000 0.000000 0.000000 -7.672560 2.887968 -21.612164 -8.373664 4.838601 31.710047 -5.927309 -7.801606 -17.690054 0.000000 0.000000 0.000000 0.149422 -0.109469 8.550482 -4.344025 1.403404 -14.354850 -12.799807 10.862097 14.893021 13.323806 -1.262377 -36.016515 0.000000 0.000000 0.000000 3.241797 -28.573034 11.145540 -1.246200 -52.201021 -4.923861 79.220114 -43.829039 -26.912041 0.000000 0.000000 0.000000 -27.632819 11.305556 3.892660 29.535308 61.543079 14.082654 -58.877663 35.002655 -14.952363 0.000000 0.000000 0.000000 
0.061812 0.511449 0.077377 6.707751 -15.899491 68.124791 9.912944 -0.504080 -34.321719 -14.052785 14.346230 56.794551 -9.953215 -8.047944 22.741344 0.000000 0.000000 0.000000 -7.341305 2.781591 -21.378633 -6.763641 4.160212 32.034511 -5.477213 -4.905653 -19.885794 0.000000 0.000000 0.000000 0.648286 -0.307700 8.484126 -3.267439 1.144239 -13.333299 -12.861376 9.289867 13.705196 13.960806 -2.092378 -32.726551 0.000000 0.000000 0.000000 3.734188 -28.888205 11.302606 2.247512 -52.194700 -6.121589 75.333611 -40.919787 -22.976595 0.000000 0.000000 0.000000 -24.938872 13.739516 4.677606 35.421594 61.047590 17.104874 -62.415626 37.980923 -17.648216 0.000000 0.000000 0.000000 
0.063425 0.505519 0.079128 4.495882 -15.277784 68.223401 8.322943 -0.654672 -34.041811 -13.090220 12.871413 54.713262 -9.213875 -7.040094 22.857230 0.000000 0.000000 0.000000 -5.801992 2.817637 -23.005003 -7.013593 4.860404 34.740153 -3.823371 0.391659 -16.601038 0.000000 0.000000 0.000000 0.292251 -0.212589 9.213918 -3.365167 1.151876 -14.153512 -11.772329 11.222413 13.579019 15.541889 -3.071698 -30.230463 0.000000 0.000000 0.000000 3.142087 -30.667351 11.923076 9.220164 -52.279132 -9.218472 68.593437 -38.840183 -19.159575 0.000000 0.000000 0.000000 -18.878447 14.049835 5.103102 38.742094 61.124460 19.424739 -58.939195 39.416839 -16.715977 0.000000 0.000000 0.000000 
0.063847 0.500937 0.079147 2.418770 -13.418905 68.642579 7.110705 -0.909670 -33.769439 -9.813577 9.650052 53.265693 -8.448982 -6.566637 21.665910 0.000000 0.000000 0.000000 -2.731593 2.803574 -24.559394 -7.934266 5.683440 36.857721 -2.933301 5.936993 -17.237433 0.000000 0.000000 0.000000 0.688716 -0.410053 9.682721 -2.047256 0.821867 -13.305520 -11.885122 10.979996 13.154964 15.176647 -3.081472 -29.572116 0.000000 0.000000 0.000000 7.951389 -30.178457 10.912052 15.385296 -52.759621 -11.930478 60.746394 -30.266458 -12.033942 0.000000 0.000000 0.000000 -15.522635 15.576869 5.920020 41.064381 60.978800 20.617050 -58.796796 38.810584 -16.114203 0.000000 0.000000 0.000000 
0.063766 0.494726 0.076799 1.101653 -12.047341 69.647646 7.212900 -0.917132 -34.396821 -8.975693 8.611817 52.346224 -6.993842 -4.403026 21.718806 0.000000 0.000000 0.000000 -0.064423 3.022484 -26.996908 -9.401108 6.914166 39.490065 -2.458028 11.598600 -18.712003 0.000000 0.000000 0.000000 0.503524 -0.411699 11.201104 -1.439206 0.671841 -13.165755 -11.502049 9.961416 13.437495 14.389217 -2.499522 -31.012183 0.000000 0.000000 0.000000 14.637500 -31.566981 10.408017 22.111682 -49.638921 -13.764041 52.347493 -16.533034 -4.491977 0.000000 0.000000 0.000000 -14.758926 16.431088 6.337449 37.480425 63.435206 19.497944 -51.820649 32.528948 -11.137519 0.000000 0.000000 0.000000 
0.063814 0.489313 0.073575 -0.040215 -10.886462 70.573160 8.328081 -0.645015 -36.947956 -6.911580 7.800056 55.526868 -6.682112 -3.873119 21.570658 0.000000 0.000000 0.000000 1.411540 3.473707 -30.272977 -8.655180 7.570501 44.099839 -1.786865 13.493103 -17.466555 0.000000 0.000000 0.000000 0.984620 -0.672564 12.763423 -1.322603 0.636347 -12.939901 -11.722355 9.140368 13.113305 14.987219 -2.685208 -30.989542 0.000000 0.000000 0.000000 19.005891 -33.149850 10.140650 29.580565 -46.361715 -15.231459 38.036842 -6.251141 -0.503086 0.000000 0.000000 0.000000 -14.562835 18.281203 7.133499 27.141957 66.825286 14.172356 -42.940410 23.403444 -6.006793 0.000000 0.000000 0.000000 
0.064081 0.485942 0.071882 -1.178035 -10.179794 71.856017 9.431919 -0.173390 -40.376044 -6.592270 8.119248 58.316050 -6.810664 -3.562234 22.462671 0.000000 0.000000 0.000000 2.172905 4.014109 -33.494949 -8.274926 8.161299 47.397294 -2.521569 14.070619 -19.646169 0.000000 0.000000 0.000000 1.238765 -0.838718 14.000253 -1.633072 0.706587 -12.260081 -11.450265 8.120301 13.066727 13.106703 -2.101325 -30.817631 0.000000 0.000000 0.000000 22.738560 -34.763216 9.892797 32.632107 -43.510282 -14.884300 26.572207 1.738060 0.927952 0.000000 0.000000 0.000000 -16.527327 19.605007 7.426995 15.284736 69.901023 7.071332 -35.790383 12.686435 -2.196215 0.000000 0.000000 0.000000 
0.064553 0.483022 0.073136 -2.014690 -10.071159 73.748459 9.538009 0.218405 -43.733821 -6.346231 8.405171 60.737369 -6.516752 -3.025375 22.458635 0.000000 0.000000 0.000000 3.033040 4.475919 -35.720794 -7.889061 8.320848 48.258182 -1.893038 12.697618 -16.921073 0.000000 0.000000 0.000000 1.090116 -0.804394 14.867801 -1.732762 0.731031 -11.962997 -11.465472 7.614782 13.462431 12.942268 -1.924808 -31.543218 0.000000 0.000000 0.000000 25.457429 -35.515502 9.501940 33.801037 -42.100317 -14.421457 19.383827 4.800645 0.911784 0.000000 0.000000 0.000000 -20.159012 20.126539 7.221630 -1.479793 70.489916 -4.136521 -28.580604 5.179033 -0.369990 0.000000 0.000000 0.000000 
0.064979 0.481891 0.077243 -2.707196 -9.309459 74.573187 9.956290 0.482654 -45.663625 -5.831232 8.169584 62.348742 -6.443160 -3.587347 20.662012 0.000000 0.000000 0.000000 3.941310 4.894637 -37.654325 -7.337159 8.408955 49.799941 -1.897118 11.344853 -16.167408 0.000000 0.000000 0.000000 1.122403 -0.891266 16.516823 -1.332128 0.623413 -11.193172 -12.221860 6.897928 12.912486 12.869303 -1.595354 -32.912150 0.000000 0.000000 0.000000 25.144315 -37.293372 10.133751 32.981447 -41.102284 -13.709501 16.033854 6.130780 0.833451 0.000000 0.000000 0.000000 -21.708649 21.088892 7.427690 -10.572690 69.927354 -10.217778 -25.341326 1.493126 0.264947 0.000000 0.000000 0.000000 
